<?xml version="1.0" encoding="utf-8"?><svg viewBox="0 0 575 403" xmlns="http://www.w3.org/2000/svg" xmlns:xlink="http://www.w3.org/1999/xlink"><style>:root>svg{display:none}:root>svg:target{display:block}</style><svg fill="none" viewBox="0 0 23 12" id="down" xmlns="http://www.w3.org/2000/svg"><path d="M21.579 1.834H1.324l10.014 8.169 10.24-8.17z" stroke="#fff" stroke-width="2" stroke-linecap="round" stroke-linejoin="round"/></svg><svg fill="none" viewBox="0 0 10 20" id="facebook" xmlns="http://www.w3.org/2000/svg"><path fill-rule="evenodd" clip-rule="evenodd" d="M6.654 19.173H2.563V9.679H.518V6.406h2.045V4.442c0-2.67 1.155-4.258 4.433-4.258h2.73v3.273H8.02c-1.278 0-1.362.458-1.362 1.312l-.005 1.637h3.092l-.362 3.273h-2.73v9.494z" fill="currentColor"/></svg><svg fill="none" viewBox="0 0 575 403" id="grid" xmlns="http://www.w3.org/2000/svg"><g opacity=".3" stroke="#979797" stroke-linecap="square"><path d="M1.224 402.057V1.369l573.198.002V393.41l-9.617 8.648H151.256l-4.809-8.648H73.354l-5.77 8.648H1.224zM1.647 252.253h572.775M1.571 126.655h572.851M278.034 1.37v250.883"/></g></svg><svg viewBox="0 0 92 92" id="my" xmlns="http://www.w3.org/2000/svg"><path d="M72.5 46.5c0 2.5-2 4.5-4.5 4.5H50v17c0 2.5-2 4.5-4.5 4.5S41 70.5 41 68V51H24c-2.5 0-4.5-2-4.5-4.5s2-4.5 4.5-4.5h17V24c0-2.5 2-4.5 4.5-4.5s4.5 2 4.5 4.5v18h18c2.5 0 4.5 2 4.5 4.5z"/></svg><svg fill="none" viewBox="0 0 31 31" id="steam" xmlns="http://www.w3.org/2000/svg"><path fill-rule="evenodd" clip-rule="evenodd" d="M15.775 30.509c8.319 0 15.062-6.716 15.062-15 0-8.284-6.743-15-15.062-15-8.32 0-15.063 6.716-15.063 15 0 1.528.23 3.003.656 4.392.108.02.284.064.54.139l-.4-6.273c0-.115.195-.17.374-.221.097-.028.19-.054.244-.088.145-.092 3.137.996 3.296 1.068l3.826 1.724a4.932 4.932 0 013.332-.703l3.477-4.222c.043-3.37 2.803-6.084 6.198-6.089 3.172.034 5.801 2.44 6.102 5.574.32 3.389-2.18 6.393-5.589 6.715l-5.791 4.116a5.121 5.121 0 01-3.405 3.87c-2.687.905-5.607-.53-6.513-3.206l-2.014-.664c-.15-.048-2.891-1.183-3.634-1.6a15.063 15.063 0 0014.364 10.468zm9.58-19.112a3.09 3.09 0 01-3.1 3.081 3.09 3.09 0 01-3.099-3.08 3.09 3.09 0 013.1-3.081 3.09 3.09 0 013.099 3.08zm-1.031 0a2.062 2.062 0 01-2.068 2.056 2.062 2.062 0 01-2.068-2.056c0-1.135.926-2.055 2.068-2.055s2.068.92 2.068 2.055zM10.58 23.412c.417.202.877.308 1.342.308.353 0 .697-.058 1.036-.168a3.074 3.074 0 00.33-5.685.518.518 0 00-.693.236.512.512 0 00.237.688 2.045 2.045 0 01.988 2.816 2.07 2.07 0 01-2.784.88.518.518 0 00-.693.237.512.512 0 00.237.688z" fill="#FFB548"/></svg><svg fill="none" viewBox="0 0 19 15" id="twit" xmlns="http://www.w3.org/2000/svg"><path opacity=".3" d="M18.398 2.414a7.671 7.671 0 01-2.124.557A3.581 3.581 0 0017.9 1.015a7.617 7.617 0 01-2.348.858 3.771 3.771 0 00-2.7-1.116c-2.04 0-3.697 1.582-3.697 3.534 0 .277.032.547.096.805-3.074-.147-5.798-1.554-7.622-3.692a3.395 3.395 0 00-.5 1.777c0 1.225.652 2.307 1.644 2.94a3.805 3.805 0 01-1.675-.441v.045c0 1.712 1.275 3.14 2.966 3.465a3.886 3.886 0 01-1.67.06c.47 1.405 1.837 2.426 3.455 2.456a7.65 7.65 0 01-4.593 1.512 8.04 8.04 0 01-.882-.05 10.826 10.826 0 005.669 1.59c6.802 0 10.52-5.387 10.52-10.057 0-.153 0-.306-.01-.458a7.37 7.37 0 001.845-1.829h.001z" fill="#fff"/></svg><svg fill="none" viewBox="0 0 20 19" id="twitch" xmlns="http://www.w3.org/2000/svg"><path fill-rule="evenodd" clip-rule="evenodd" d="M19.96 13.625V.68H2.94L.81 2.977v12.11h5.32v3.758h2.34l2.553-2.714h6.383l2.553-2.506zm-12.553-.209H4.003A.423.423 0 013.577 13V2.769c0-.23.192-.418.426-.418H17.62c.234 0 .425.188.425.417v7.934a.41.41 0 01-.122.298l-2.34 2.296a.435.435 0 01-.304.12h-3.91L8.073 15.64a.43.43 0 01-.436.026.412.412 0 01-.23-.37v-1.88z" fill="currentColor"/><path d="M13.79 9.763V5.587h-1.702v4.176h1.702zm-4.255 0V5.587H7.833v4.176h1.702z" fill="currentColor"/></svg><svg fill="none" viewBox="0 0 22 17" id="twitter" xmlns="http://www.w3.org/2000/svg"><path fill-rule="evenodd" clip-rule="evenodd" d="M21.214 2.43a9.062 9.062 0 01-2.475.635c.89-.5 1.573-1.292 1.895-2.234a9.05 9.05 0 01-2.738.98A4.437 4.437 0 0014.75.535c-2.38 0-4.311 1.809-4.311 4.039 0 .317.038.626.112.92-3.582-.168-6.758-1.776-8.884-4.22a3.829 3.829 0 00-.583 2.032c0 1.4.76 2.638 1.917 3.362a4.527 4.527 0 01-1.952-.506v.052c0 1.957 1.485 3.589 3.457 3.96a4.696 4.696 0 01-1.946.07c.548 1.603 2.14 2.772 4.026 2.805a9.023 9.023 0 01-5.353 1.728c-.348 0-.691-.02-1.028-.056a12.81 12.81 0 006.607 1.815c7.928 0 12.263-6.156 12.263-11.493 0-.176-.005-.35-.013-.523a8.503 8.503 0 002.15-2.09z" fill="currentColor"/></svg><svg fill="none" viewBox="0 0 31 31" id="xbox" xmlns="http://www.w3.org/2000/svg"><path d="M10.551 3.158a22.246 22.246 0 014.56 2.444c.164.112.351.17.54.17a.964.964 0 00.539-.17 22.27 22.27 0 014.56-2.45.935.935 0 00.592-.879.925.925 0 00-.605-.867C17.57.205 13.732.205 10.57 1.406a.944.944 0 00-.018 1.752z" fill="#FFB548"/><path d="M24.159 3.164a.94.94 0 00-1.004-.041 40.987 40.987 0 00-5.052 3.434.942.942 0 00-.064 1.412c3.32 3.16 7.921 12.847 8.977 17.3-2.288-3.867-7.393-12.969-10.731-16.08a.942.942 0 00-1.28 0C11.661 12.3 6.574 21.406 4.285 25.28 5.342 20.827 9.93 11.128 13.251 7.97a.933.933 0 00-.059-1.412A41.445 41.445 0 008.14 3.123a.941.941 0 00-1.003.04A14.992 14.992 0 00.624 15.507c0 3.598 1.297 7.068 3.661 9.775a14.897 14.897 0 0011.36 5.228c4.395 0 8.537-1.905 11.371-5.233a14.849 14.849 0 003.65-9.77c0-4.923-2.435-9.535-6.507-12.342z" fill="#FFB548"/></svg><svg fill="none" viewBox="0 0 26 19" id="youtube" xmlns="http://www.w3.org/2000/svg"><path d="M20.61.184H5.99C3.126.184.8 2.55.8 5.464v7.433c0 2.92 2.326 5.281 5.19 5.281h14.615c2.868 0 5.19-2.367 5.19-5.28V5.463C25.8 2.551 23.472.184 20.61.184zm-3.514 9.364l-6.838 3.316a.272.272 0 01-.39-.254V5.768c0-.21.216-.342.395-.248L17.1 9.046c.206.104.201.402-.005.502z" fill="currentColor"/></svg></svg>